<!DOCTYPE svg PUBLIC "-//W3C//DTD SVG 1.1//EN" "http://www.w3.org/Graphics/SVG/1.1/DTD/svg11.dtd">
<!-- Uploaded to: SVG Repo, www.svgrepo.com, Transformed by: SVG Repo Mixer Tools -->
<svg width="800px" height="800px" viewBox="0 -2 20 20" xmlns="http://www.w3.org/2000/svg" fill="#000000">
<g id="SVGRepo_bgCarrier" stroke-width="0"/>
<g id="SVGRepo_tracerCarrier" stroke-linecap="round" stroke-linejoin="round"/>
<g id="SVGRepo_iconCarrier"> <g id="basketball-shoes" transform="translate(-2 -3)"> <path id="secondary" fill="#f28621" d="M18.26,9.09,12,7,11,4,3.76,5.81a1,1,0,0,0-.76,1V12H6.17a2,2,0,0,1,1.42.59l.82.82A2,2,0,0,0,9.83,14H21V12.88A4,4,0,0,0,18.26,9.09Z"/> <path id="primary" d="M12,7,10,9m5.63-.63-1.88,1.88m4.51-1.16L12,7,11,4,3.76,5.81a1,1,0,0,0-.76,1V17a1,1,0,0,0,1,1H20a1,1,0,0,0,1-1V12.88A4,4,0,0,0,18.26,9.09ZM9.83,14a2,2,0,0,1-1.42-.59l-.82-.82A2,2,0,0,0,6.17,12H3v5a1,1,0,0,0,1,1H20a1,1,0,0,0,1-1V14Z" fill="none" stroke="#000000" stroke-linecap="round" stroke-linejoin="round" stroke-width="2"/> </g> </g>
</svg>