<svg fill="none" height="512" viewBox="0 0 24 24" width="512" xmlns="http://www.w3.org/2000/svg"><path clip-rule="evenodd" d="m1 12c0-6.07513 4.92487-11 11-11 6.0751 0 11 4.92487 11 11 0 6.0751-4.9249 11-11 11-6.07513 0-11-4.9249-11-11zm15.7071-1.9931c.3905-.39052.3905-1.02368 0-1.4142-.3905-.39053-1.0237-.39053-1.4142 0l-4.6794 4.6794-1.89318-1.9659c-.38309-.3978-1.01614-.4098-1.41396-.0267s-.40977 1.0161-.02668 1.414l2.60001 2.7c.18621.1934.44241.3038.71091.3063s.5267-.103.7165-.2929z" fill="rgb(0,0,0)" fill-rule="evenodd"/></svg>