<svg xmlns="http://www.w3.org/2000/svg" version="1.1" xmlns:xlink="http://www.w3.org/1999/xlink" width="512" height="512" x="0" y="0" viewBox="0 0 511.69 511.69" style="enable-background:new 0 0 512 512" xml:space="preserve" class=""><g><circle cx="255.845" cy="255.845" r="255.845" fill="#ff6e31" opacity="1" data-original="#ff0054" class=""></circle><path fill="#cd5a29" d="M255.845 0c-.188 0-.374.007-.562.007v511.676c.188 0 .374.007.562.007 141.299 0 255.845-114.546 255.845-255.845S397.144 0 255.845 0z" opacity="1" data-original="#d90041" class=""></path><path fill="#fff5f5" d="m384.411 155.4-27.966-27.966c-5.321-5.321-13.949-5.321-19.27 0l-81.33 81.33-81.33-81.33c-5.321-5.321-13.949-5.321-19.27 0L127.279 155.4c-5.321 5.321-5.321 13.949 0 19.27l81.33 81.33-81.33 81.33c-5.321 5.321-5.321 13.949 0 19.27l27.966 27.966c5.321 5.321 13.949 5.321 19.27 0l81.33-81.33 81.33 81.33c5.321 5.321 13.949 5.321 19.27 0l27.966-27.966c5.321-5.321 5.321-13.949 0-19.27L303.081 256l81.33-81.33c5.321-5.321 5.321-13.949 0-19.27z" opacity="1" data-original="#fff5f5" class=""></path><path fill="#ebe2f0" d="m384.411 155.4-27.966-27.966c-5.321-5.321-13.949-5.321-19.27 0l-81.33 81.33-.562-.562v95.595l.562-.562 81.33 81.33c5.321 5.321 13.949 5.321 19.27 0l27.966-27.966c5.321-5.321 5.321-13.949 0-19.27L303.081 256l81.33-81.33c5.321-5.321 5.321-13.949 0-19.27z" opacity="1" data-original="#ebe2f0" class=""></path></g></svg>