<svg xmlns="http://www.w3.org/2000/svg" version="1.1" xmlns:xlink="http://www.w3.org/1999/xlink" width="512" height="512" x="0" y="0" viewBox="0 0 53 53" style="enable-background:new 0 0 512 512" xml:space="preserve" class=""><g><path fill="#2c3642" d="M12.77 52H2.5A1.5 1.5 0 0 1 1 50.5V40.23a1.5 1.5 0 0 1 3 0V49h8.77a1.5 1.5 0 0 1 0 3zM50.5 14.27a1.5 1.5 0 0 1-1.5-1.5V4h-8.77a1.5 1.5 0 0 1 0-3H50.5A1.5 1.5 0 0 1 52 2.5v10.27a1.5 1.5 0 0 1-1.5 1.5zM50.5 52H40.23a1.5 1.5 0 0 1 0-3H49v-8.77a1.5 1.5 0 0 1 3 0V50.5a1.5 1.5 0 0 1-1.5 1.5zM2.5 14.27a1.5 1.5 0 0 1-1.5-1.5V2.5A1.5 1.5 0 0 1 2.5 1h10.27a1.5 1.5 0 0 1 0 3H4v8.77a1.5 1.5 0 0 1-1.5 1.5z" opacity="1" data-original="#2c3642" class=""></path><path fill="#ededed" d="M46.415 13.807v25.386c0 1.105-.889 2-1.994 2-3.634 0-13.142-.003-35.837-.014a2 2 0 0 1-2-2V13.807a2 2 0 0 1 2-2h35.831a2 2 0 0 1 2 2z" opacity="1" data-original="#ededed"></path><g fill="#2c3642"><path d="M27.738 16.785h1.938v19.43h-1.938zM38.214 16.785h1.938v19.43h-1.938zM41.659 16.785h1.954v19.43h-1.954zM14.54 16.785h1.907v19.406H14.54zM19.309 16.785h4.076v19.43l-4.076-.024zM32.614 16.785h4.061v19.43h-4.061zM25.385 16.785h.938v19.43h-.938zM9.387 16.785h4.122v19.406H9.387z" fill="#2c3642" opacity="1" data-original="#2c3642" class=""></path></g><path fill="#f36e22" d="M52 26.5c0 .886-.718 1.603-1.603 1.603H2.603a1.603 1.603 0 0 1 0-3.207h47.794c.885 0 1.603.718 1.603 1.604z" opacity="1" data-original="#f34624" class=""></path></g></svg>