<svg id="Layer_1" enable-background="new 0 0 20 20" height="512" viewBox="0 0 20 20" width="512" xmlns="http://www.w3.org/2000/svg"><path d="m20 .9c0-.5-.4-.9-.9-.9h-7c-.3 0-.6.1-.8.3l-11 10.5c-.4.4-.4 1 0 1.4l7 7.5c.4.4 1 .4 1.4 0l11-10.8c.2-.2.3-.5.3-.8zm-6.6 9.3-1.4-1.4c.4-.4.4-1 0-1.4s-1-.4-1.4 0-.4 1 0 1.4c1.2 1.2 1.2 3.1 0 4.2-.9.9-2.3 1.1-3.4.6l-.9.8-1.4-1.4.8-.8c-.5-1.1-.4-2.5.6-3.4l1.4 1.4c-.4.4-.4 1 0 1.4s1 .4 1.4 0 .4-1 0-1.4c-1.1-1.1-1.1-3 .1-4.2.9-.9 2.3-1.1 3.4-.6l.8-.8 1.4 1.4-.8.8c.5 1.1.3 2.5-.6 3.4zm4.9-7.1c-.4.4-1 .4-1.4 0s-.4-1 0-1.4 1-.4 1.4 0 .4 1 0 1.4z"/></svg>