<svg xmlns="http://www.w3.org/2000/svg" version="1.1" xmlns:xlink="http://www.w3.org/1999/xlink" width="512" height="512" x="0" y="0" viewBox="0 0 40.99 48.01" style="enable-background:new 0 0 512 512" xml:space="preserve" class=""><g><g data-name="Layer 2"><path d="M28 18.82v5.88l-2-.7-2 2.99v-5.86l-6 3.46v17.3l15-8.66v-17.3zM16 24.59 1 15.93v17.3l15 8.66zM27.05 17.06l4.97-2.87L17 5.52l-4.97 2.87zM8.33 10.52l-6.35 3.67L17 22.86l6.35-3.67z" fill="#f36e22" opacity="1" data-original="#000000" class=""></path><path d="M30.61 43.78a24 24 0 0 1-29.84-2.1 1 1 0 0 1 0-1.44 1 1 0 0 1 1.4 0 22 22 0 0 0 30.39-31.8A21.5 21.5 0 0 0 3.61 7H8a1 1 0 0 1 0 2H1a1 1 0 0 1-1-1V1a1 1 0 0 1 2 0v4.73A23.49 23.49 0 0 1 34 7a24 24 0 0 1-3.39 36.78z" fill="#f36e22" opacity="1" data-original="#000000" class=""></path></g></g></svg>