<svg xmlns="http://www.w3.org/2000/svg" version="1.1" xmlns:xlink="http://www.w3.org/1999/xlink" width="512" height="512" x="0" y="0" viewBox="0 0 512 512" style="enable-background:new 0 0 512 512" xml:space="preserve" class=""><g><g fill="#097ec4" data-name="Layer 2"><path d="M272.7 192h21.76l-.08-48.29h-21.91a110.7 110.7 0 0 0-14.06-34.08l15.73-15.41-33.8-34.49-15.82 15.51a110.14 110.14 0 0 0-36.07-15.12V37.94h-48.3v22.18a110 110 0 0 0-34.34 14L90.29 58.35 55.85 92.21l15.45 15.71a110.15 110.15 0 0 0-15.25 36.18H34.14l.08 48.29h21.77a109.84 109.84 0 0 0 13.95 34.33l-15.48 15.16 33.8 34.49 15.4-15.09a110 110 0 0 0 36.49 15.39v21.51h48.3v-21.51a110.18 110.18 0 0 0 34.75-14.27l15.11 15.37 34.44-33.86-15.19-15.45A110.15 110.15 0 0 0 272.7 192zm-108.4 16.56a40.5 40.5 0 1 1 40.5-40.5 40.5 40.5 0 0 1-40.5 40.5zM325.86 382.59l14.65-4.8-10.65-32.52-14.75 4.84a78.39 78.39 0 0 0-16.95-19.88l7.21-13.83L275 300.57l-7.26 13.91a77.85 77.85 0 0 0-27.62-2.27l-4.87-14.95-32.54 10.6 4.87 14.94a78.06 78.06 0 0 0-20.07 17l-13.92-7.23-15.78 30.37 13.86 7.2a78.17 78.17 0 0 0-2.34 27.72l-14.75 4.84 10.65 32.52 14.65-4.8a78.24 78.24 0 0 0 16.93 20.07l-7.1 13.6 30.35 15.83 7.06-13.55a78.19 78.19 0 0 0 28 2.37l4.72 14.49 32.54-10.6-4.72-14.49a78 78 0 0 0 20.28-17.24l13.56 7 15.78-30.37-13.63-7.08a78.12 78.12 0 0 0 2.21-27.86zm-69.42 34.93a28.7 28.7 0 1 1 18.41-36.17 28.69 28.69 0 0 1-18.41 36.17zM467.91 237.59l14.66-4.81-10.65-32.52-14.76 4.84a78 78 0 0 0-17-19.88l7.22-13.83-30.34-15.83-7.26 13.91a77.92 77.92 0 0 0-27.63-2.27l-4.86-14.95-32.54 10.6 4.86 14.94a78 78 0 0 0-20.06 17l-13.93-7.23-15.72 30.35 13.85 7.2a78.17 78.17 0 0 0-2.34 27.72l-14.75 4.84 10.65 32.52 14.66-4.8a77.84 77.84 0 0 0 16.93 20.07l-7.1 13.61 30.34 15.82 7.07-13.54a78.34 78.34 0 0 0 28 2.36l4.72 14.49 32.54-10.6-4.72-14.49A78 78 0 0 0 450 295.87l13.56 7 15.77-30.37-13.62-7.07a78.15 78.15 0 0 0 2.2-27.84zm-69.41 34.93a28.7 28.7 0 1 1 18.4-36.18 28.72 28.72 0 0 1-18.4 36.18z" fill="#ffffff" opacity="1" data-original="#097ec4" class=""></path></g></g></svg>