<svg xmlns="http://www.w3.org/2000/svg" version="1.1" xmlns:xlink="http://www.w3.org/1999/xlink" width="512" height="512" x="0" y="0" viewBox="0 0 21 21" style="enable-background:new 0 0 512 512" xml:space="preserve" fill-rule="evenodd" class=""><g><g fill="#00adfe"><path fill-rule="nonzero" d="M8.854 1.321c2.084 0 3.97.845 5.336 2.21s2.21 3.253 2.21 5.337-.844 3.97-2.21 5.336-3.252 2.21-5.336 2.21-3.97-.844-5.336-2.21-2.21-3.252-2.21-5.336.844-3.97 2.21-5.336 3.252-2.21 5.336-2.21zm3.944 3.603c-1.01-1.01-2.404-1.634-3.944-1.634s-2.935.624-3.944 1.634-1.634 2.404-1.634 3.944.624 2.935 1.634 3.944 2.404 1.634 3.944 1.634 2.935-.624 3.944-1.634 1.634-2.404 1.634-3.944-.624-2.935-1.634-3.944z" fill="#fe7a00" opacity="1" data-original="#00adfe" class=""></path><path d="m14.382 13.004 5.013 5.013a.986.986 0 0 1 0 1.392.986.986 0 0 1-1.392 0l-5.013-5.013a.986.986 0 0 1 0-1.392.986.986 0 0 1 1.392 0z" fill="#fe7a00" opacity="1" data-original="#00adfe" class=""></path></g></g></svg>