<svg xmlns="http://www.w3.org/2000/svg" version="1.1" xmlns:xlink="http://www.w3.org/1999/xlink" width="512" height="512" x="0" y="0" viewBox="0 0 20 20" style="enable-background:new 0 0 512 512" xml:space="preserve" class=""><g><path d="M20 .9c0-.5-.4-.9-.9-.9h-7c-.3 0-.6.1-.8.3L.3 10.8c-.4.4-.4 1 0 1.4l7 7.5c.4.4 1 .4 1.4 0l11-10.8c.2-.2.3-.5.3-.8zm-6.6 9.3L12 8.8c.4-.4.4-1 0-1.4s-1-.4-1.4 0-.4 1 0 1.4c1.2 1.2 1.2 3.1 0 4.2-.9.9-2.3 1.1-3.4.6l-.9.8L4.9 13l.8-.8c-.5-1.1-.4-2.5.6-3.4l1.4 1.4c-.4.4-.4 1 0 1.4s1 .4 1.4 0 .4-1 0-1.4C8 9.1 8 7.2 9.2 6c.9-.9 2.3-1.1 3.4-.6l.8-.8L14.8 6l-.8.8c.5 1.1.3 2.5-.6 3.4zm4.9-7.1c-.4.4-1 .4-1.4 0s-.4-1 0-1.4 1-.4 1.4 0 .4 1 0 1.4z" fill="#ffffff" opacity="1" data-original="#000000" class=""></path></g></svg>