<svg viewBox="0 0 40.99 48.01" xmlns="http://www.w3.org/2000/svg"><g id="Layer_2" data-name="Layer 2"><g id="Icon"><path d="m28 18.82v5.88l-2-.7-2 2.99v-5.86l-6 3.46v17.3l15-8.66v-17.3z"/><path d="m16 24.59-15-8.66v17.3l15 8.66z"/><path d="m27.05 17.06 4.97-2.87-15.02-8.67-4.97 2.87z"/><path d="m8.33 10.52-6.35 3.67 15.02 8.67 6.35-3.67z"/><path d="m30.61 43.78a24 24 0 0 1 -29.84-2.1 1 1 0 0 1 0-1.44 1 1 0 0 1 1.4 0 22 22 0 0 0 30.39-31.8 21.5 21.5 0 0 0 -28.95-1.44h4.39a1 1 0 0 1 0 2h-7a1 1 0 0 1 -1-1v-7a1 1 0 0 1 2 0v4.73a23.49 23.49 0 0 1 32 1.27 24 24 0 0 1 -3.39 36.78z"/></g></g></svg>