<?xml version="1.0" encoding="UTF-8"?>
<svg id="Capa_1" data-name="Capa 1" xmlns="http://www.w3.org/2000/svg" viewBox="0 0 512 512">
  <defs>
    <style>
      .cls-1 {
        stroke-width: 0px;
      }
    </style>
  </defs>
  <g>
    <path class="cls-1" d="m194.76,368.84c-17.3.65-32.41,16.87-30.26,34.19,2.28,18.37,12.22,29.94,31.62,30.03,18.06.08,32.31-14.65,31.77-32.57-.55-17.94-15.6-32.32-33.13-31.65Zm1.35,42.53c-6.96-.03-10.52-4.08-11.34-10.51-.77-6.06,4.65-11.74,10.85-11.96,6.29-.23,11.69,4.8,11.88,11.08.2,6.27-4.92,11.43-11.39,11.4Z"/>
    <path class="cls-1" d="m346.1,368.84c-17.3.65-32.41,16.87-30.26,34.19,2.28,18.37,12.22,29.94,31.62,30.03,18.06.08,32.31-14.65,31.77-32.57-.55-17.94-15.6-32.32-33.13-31.65Zm1.35,42.53c-6.96-.03-10.52-4.08-11.34-10.51-.77-6.06,4.65-11.74,10.85-11.96,6.29-.23,11.69,4.8,11.88,11.08.2,6.27-4.92,11.43-11.39,11.4Z"/>
    <path class="cls-1" d="m426.19,127.68c-2.88-.06-5.76-.02-8.63-.02-88.36,0-176.71-.12-265.07.2-7.45.03-10-2.37-11.08-9.22-1.34-8.5-3.92-16.79-5.56-25.25-1.7-8.8-6.56-12.59-15.62-12.46-21.29.31-42.59.05-63.89.12-9.49.03-14.88,4.42-14.79,11.78.09,7.32,5.43,11.59,15.05,11.65,16.69.11,33.39.25,50.08-.06,5.67-.11,7.86,1.79,9.08,7.4,12.65,58.13,25.53,116.2,38.59,174.24,1.21,5.36,1.01,8.48-4.18,11.95-12.82,8.57-17.71,23.46-13.72,37.86,4.11,14.84,16.17,24.59,31.99,25.8,4.16.32,210.88.44,214.75-.03,6.94-.85,11.09-4.97,10.79-12.13-.27-6.64-4.26-10.49-10.92-11.16-2.85-.29-5.75-.15-8.63-.15-66.48,0-132.97,0-199.45-.02-10.81,0-15.83-3.71-15.9-11.48-.07-7.79,4.99-11.55,15.77-11.71,1.73-.03,3.45,0,5.18,0,65.33,0,130.66,0,196,0,13.89,0,15.94-1.65,19.77-15.2,5.86-20.74,11.78-41.46,17.69-62.19,8.75-30.67,17.62-61.31,26.21-92.03,3.3-11.8-1.34-17.65-13.49-17.88Zm-21.88,55.25c-9.71,33.98-19.51,67.94-29.09,101.96-1.24,4.39-2.67,6.8-7.96,6.78-61.3-.2-122.6-.14-183.89-.17-.84,0-1.68-.28-3.58-.63-10.19-45.81-20.46-91.96-30.88-138.78h264.12c-3.02,10.67-5.84,20.76-8.72,30.84Z"/>
  </g>
  <path class="cls-1" d="m302.65,205.13c5.14,0,11.36.26,12.55,1.95s1.44,4.73,1.37,7.79c-.35,14.9-.07,29.81-.14,44.72-.05,10.34-2.78,13.02-13.4,13.06-17.77.08-35.55.09-53.32,0-9.84-.05-12.92-3.12-12.97-12.76-.08-15.19.13-30.39-.09-45.58-.04-2.75-.04-5.26,1.07-6.74,1.83-2.44,5.62-2.54,11-2.44-.02-27.7,10.54-39.17,27.88-39.1,17.45-.09,26.07,11.87,26.07,39.1Zm-43.45,0h33.5c1.3-10.78.37-21.34-7.46-26.71-6.19-4.25-12.97-4.52-19,.12-8,6.15-8.57,15.82-7.04,26.59Zm29.53,48.42l-7.44-15.28s3.39-2.92,3.52-4.84c.17-2.61-1.65-6.72-3.75-7.77-2.53-1.25-6.94-.97-9.37.53-2.04,1.26-3.84,3.07-3.35,7.25.18,1.55,3.11,5.39,3.11,5.39l-6.45,14.72h23.72Z"/>
</svg>