<svg id="Layer_1" height="512" viewBox="0 0 512 512" width="512" xmlns="http://www.w3.org/2000/svg" data-name="Layer 1"><path d="m340.622 85.898-176.351 78.158 81.062 35.928 176.349-78.16z"/><path d="m137.948 152.39 176.352-78.158-60.323-26.732a21.333 21.333 0 0 0 -17.288 0l-167.7 74.327z"/><path d="m234.667 218.59-181.334-80.37v209.806a21.332 21.332 0 0 0 12.69 19.5l168.643 74.742z"/><path d="m256 362.667v79.605l22.855-10.13a116.684 116.684 0 0 1 -22.855-69.475z"/><path d="m373.333 245.333a116.611 116.611 0 0 1 64 19.067v-126.18l-181.333 80.37v144.077a117.466 117.466 0 0 1 117.333-117.334z"/><path d="m373.333 266.667a96 96 0 1 0 96 96 96 96 0 0 0 -96-96zm50.208 82.208-53.333 53.333a10.663 10.663 0 0 1 -15.083 0l-26.667-26.667a10.666 10.666 0 0 1 15.083-15.083l19.125 19.122 45.792-45.789a10.666 10.666 0 1 1 15.083 15.083z"/></svg>