<?xml version="1.0" encoding="UTF-8"?>
<svg xmlns="http://www.w3.org/2000/svg" viewBox="0 0 512 512">
  <defs>
    <style>
      .cls-1, .cls-2 {
        stroke-width: 0px;
      }

      .cls-2 {
        fill: #fff;
      }
    </style>
  </defs>
  <g id="Capa_2" data-name="Capa 2">
    <rect class="cls-1" y="1.07" width="512" height="512"/>
  </g>
  <g id="Capa_1" data-name="Capa 1">
    <g>
      <g>
        <path class="cls-2" d="m195.64,368.84c-17.3.65-32.41,16.87-30.26,34.19,2.28,18.37,12.22,29.94,31.62,30.03,18.06.08,32.31-14.65,31.77-32.57-.55-17.94-15.6-32.32-33.13-31.65Zm1.35,42.53c-6.96-.03-10.52-4.08-11.34-10.51-.77-6.06,4.65-11.74,10.85-11.96,6.29-.23,11.69,4.8,11.88,11.08.2,6.27-4.92,11.43-11.39,11.4Z"/>
        <path class="cls-2" d="m346.98,368.84c-17.3.65-32.41,16.87-30.26,34.19,2.28,18.37,12.22,29.94,31.62,30.03,18.06.08,32.31-14.65,31.77-32.57-.55-17.94-15.6-32.32-33.13-31.65Zm1.35,42.53c-6.96-.03-10.52-4.08-11.34-10.51-.77-6.06,4.65-11.74,10.85-11.96,6.29-.23,11.69,4.8,11.88,11.08.2,6.27-4.92,11.43-11.39,11.4Z"/>
        <path class="cls-2" d="m427.06,127.68c-2.88-.06-5.76-.02-8.63-.02-88.36,0-176.71-.12-265.07.2-7.45.03-10-2.37-11.08-9.22-1.34-8.5-3.92-16.79-5.56-25.25-1.7-8.8-6.56-12.59-15.62-12.46-21.29.31-42.59.05-63.89.12-9.49.03-14.88,4.42-14.79,11.78.09,7.32,5.43,11.59,15.05,11.65,16.69.11,33.39.25,50.08-.06,5.67-.11,7.86,1.79,9.08,7.4,12.65,58.13,25.53,116.2,38.59,174.24,1.21,5.36,1.01,8.48-4.18,11.95-12.82,8.57-17.71,23.46-13.72,37.86,4.11,14.84,16.17,24.59,31.99,25.8,4.16.32,210.88.44,214.75-.03,6.94-.85,11.09-4.97,10.79-12.13-.27-6.64-4.26-10.49-10.92-11.16-2.85-.29-5.75-.15-8.63-.15-66.48,0-132.97,0-199.45-.02-10.81,0-15.83-3.71-15.9-11.48-.07-7.79,4.99-11.55,15.77-11.71,1.73-.03,3.45,0,5.18,0,65.33,0,130.66,0,196,0,13.89,0,15.94-1.65,19.77-15.2,5.86-20.74,11.78-41.46,17.69-62.19,8.75-30.67,17.62-61.31,26.21-92.03,3.3-11.8-1.34-17.65-13.49-17.88Zm-21.88,55.25c-9.71,33.98-19.51,67.94-29.09,101.96-1.24,4.39-2.67,6.8-7.96,6.78-61.3-.2-122.6-.14-183.89-.17-.84,0-1.68-.28-3.58-.63-10.19-45.81-20.46-91.96-30.88-138.78h264.12c-3.02,10.67-5.84,20.76-8.72,30.84Z"/>
      </g>
      <path class="cls-2" d="m303.83,205.6c5.2,0,11.5.26,12.7,1.97,1.21,1.71,1.46,4.78,1.38,7.89-.36,15.08-.07,30.17-.14,45.26-.05,10.46-2.81,13.18-13.56,13.22-17.99.08-35.98.09-53.97,0-9.96-.05-13.08-3.16-13.13-12.91-.08-15.38.14-30.76-.1-46.13-.04-2.78-.05-5.32,1.08-6.82,1.85-2.47,5.69-2.57,11.13-2.47-.02-28.03,10.67-39.64,28.21-39.57,17.66-.09,26.38,12.01,26.38,39.57Zm-43.97,0h33.91c1.31-10.91.37-21.6-7.55-27.04-6.27-4.3-13.13-4.57-19.23.12-8.09,6.23-8.67,16.01-7.13,26.91Zm29.88,49.01l-7.53-15.46s3.43-2.95,3.56-4.9c.17-2.65-1.67-6.81-3.79-7.86-2.56-1.27-7.02-.99-9.48.54-2.06,1.28-3.88,3.1-3.39,7.33.18,1.57,3.15,5.45,3.15,5.45l-6.52,14.9h24.01Z"/>
    </g>
  </g>
</svg>