<svg enable-background="new 0 0 64 64" height="512" viewBox="0 0 64 64" width="512" xmlns="http://www.w3.org/2000/svg"><g id="Layer_36" fill="#cd4527"><path d="m56.12 31.38h-2.87v-26.26c0-.55-.45-1-1-1h-40.5c-.55 0-1 .45-1 1v26.26h-2.87c-.56 0-1 .44-1 1v19.24c0 .56.44 1 1 1h2.87v6.26c0 .55.45 1 1 1h40.5c.55 0 1-.45 1-1v-6.26h2.87c.56 0 1-.44 1-1v-19.24c0-.56-.44-1-1-1zm-4.87 26.5h-38.5v-5.26h38.5zm-33.41-10.63v-10.74c0-.13.11-.25.25-.25h3.48c1.35 0 2.22.061 2.64.17.67.181 1.23.561 1.68 1.141s.681 1.34.681 2.25c0 .689-.13 1.29-.391 1.779-.26.48-.59.86-.989 1.141-.4.279-.811.46-1.21.55-.551.11-1.301.16-2.311.16h-1.16v3.8c0 .14-.109.25-.25.25h-2.17c-.14-.001-.25-.111-.25-.251zm10 0v-10.74c0-.13.11-.25.25-.25h3.96c.931 0 1.62.07 2.12.221.67.199 1.25.55 1.72 1.06.48.49.841 1.11 1.08 1.83.25.71.37 1.59.37 2.61 0 .909-.12 1.71-.34 2.369-.28.82-.69 1.49-1.21 2-.41.391-.95.7-1.63.91-.5.16-1.17.24-1.99.24h-4.08c-.14 0-.25-.11-.25-.25zm17.75-6.63c.141 0 .25.11.25.25v1.82c0 .14-.109.25-.25.25h-4.23v4.31c0 .14-.11.25-.25.25h-2.17c-.131 0-.25-.11-.25-.25v-10.74c0-.13.119-.25.25-.25h7.36c.141 0 .25.12.25.25v1.82c0 .14-.109.25-.25.25h-4.94v2.04zm5.66-9.24h-38.5v-25.26h38.5z"/><path d="m23.83 39.85c0 .261-.07.49-.2.69s-.32.34-.56.43c-.181.07-.601.16-1.62.16h-.94v-2.55h.8c.761 0 1.271.02 1.511.07.3.05.54.18.729.399.19.201.28.471.28.801z"/><path d="m34.6 41.89c0 .801-.069 1.44-.21 1.891-.13.439-.3.75-.5.93-.199.18-.449.31-.77.39-.24.061-.66.091-1.24.091h-1.37v-6.61h.721c.859 0 1.439.03 1.729.1.36.07.65.221.88.44.23.22.42.53.55.93.14.418.21 1.038.21 1.838z"/><path d="m46.75 13.375h-29.5c-.553 0-1-.447-1-1s.447-1 1-1h29.5c.553 0 1 .447 1 1s-.447 1-1 1z"/><path d="m46.75 20.375h-29.5c-.553 0-1-.447-1-1s.447-1 1-1h29.5c.553 0 1 .447 1 1s-.447 1-1 1z"/><path d="m46.75 27.375h-29.5c-.553 0-1-.447-1-1s.447-1 1-1h29.5c.553 0 1 .447 1 1s-.447 1-1 1z"/></g></svg>