<svg xmlns="http://www.w3.org/2000/svg" version="1.1" xmlns:xlink="http://www.w3.org/1999/xlink" width="512" height="512" x="0" y="0" viewBox="0 0 511.999 511.999" style="enable-background:new 0 0 512 512" xml:space="preserve" class=""><g><path d="m197.141 130.181-41.257 41.257-21.239-21.24-21.214 21.214 42.453 42.453 62.471-62.47zM247.781 121.695h150.187v30.001H247.781zM247.781 181.748h150.187v30.001H247.781zM197.141 250.282l-41.257 41.257-21.239-21.24-21.214 21.214 42.453 42.454 62.471-62.471zM247.781 241.791h150.187v30.001H247.781zM247.781 301.844h150.187v30.001H247.781zM197.141 370.384l-41.257 41.257-21.239-21.24-21.214 21.214 42.453 42.453 62.471-62.47zM247.781 361.896h150.187v30.001H247.781zM247.781 421.949h150.187v30.001H247.781z" fill="#ffffff" opacity="1" data-original="#000000"></path><path d="M367.932 30.821V0H144.066v30.821H53.99v481.178h404.018V30.821h-90.076zm-193.864-.82h163.863v31.642H174.068V30.001zm253.939 451.998H83.992V60.823h60.075v30.821h223.866V60.823h60.075v421.176z" fill="#ffffff" opacity="1" data-original="#000000"></path></g></svg>