<?xml version="1.0" encoding="iso-8859-1"?>
<!-- Generator: Adobe Illustrator 19.0.0, SVG Export Plug-In . SVG Version: 6.00 Build 0)  -->
<svg version="1.1" id="Capa_1" xmlns="http://www.w3.org/2000/svg" xmlns:xlink="http://www.w3.org/1999/xlink" x="0px" y="0px"
	 viewBox="0 0 511.999 511.999" style="enable-background:new 0 0 511.999 511.999;" xml:space="preserve">
<g>
	<g>
		<polygon points="197.141,130.181 155.884,171.438 134.645,150.198 113.431,171.412 155.884,213.865 218.355,151.395 		"/>
	</g>
</g>
<g>
	<g>
		<rect x="247.781" y="121.695" width="150.187" height="30.001"/>
	</g>
</g>
<g>
	<g>
		<rect x="247.781" y="181.748" width="150.187" height="30.001"/>
	</g>
</g>
<g>
	<g>
		<polygon points="197.141,250.282 155.884,291.539 134.645,270.299 113.431,291.513 155.884,333.967 218.355,271.496 		"/>
	</g>
</g>
<g>
	<g>
		<rect x="247.781" y="241.791" width="150.187" height="30.001"/>
	</g>
</g>
<g>
	<g>
		<rect x="247.781" y="301.844" width="150.187" height="30.001"/>
	</g>
</g>
<g>
	<g>
		<polygon points="197.141,370.384 155.884,411.641 134.645,390.401 113.431,411.615 155.884,454.068 218.355,391.598 		"/>
	</g>
</g>
<g>
	<g>
		<rect x="247.781" y="361.896" width="150.187" height="30.001"/>
	</g>
</g>
<g>
	<g>
		<rect x="247.781" y="421.949" width="150.187" height="30.001"/>
	</g>
</g>
<g>
	<g>
		<path d="M367.932,30.821V0H144.066v30.821H53.99v481.178h404.018V30.821H367.932z M174.068,30.001h163.863v31.642H174.068V30.001z
			 M428.007,481.999H83.992V60.823h60.075v30.821h223.866V60.823h60.075V481.999z"/>
	</g>
</g>
<g>
</g>
<g>
</g>
<g>
</g>
<g>
</g>
<g>
</g>
<g>
</g>
<g>
</g>
<g>
</g>
<g>
</g>
<g>
</g>
<g>
</g>
<g>
</g>
<g>
</g>
<g>
</g>
<g>
</g>
</svg>
